<svg width="13" height="13" viewBox="0 0 13 13" fill="none" xmlns="http://www.w3.org/2000/svg">
<path fill-rule="evenodd" clip-rule="evenodd" d="M2.57437 0.442054L6.33107 4.19855L10.0858 0.446278C10.6752 -0.143127 11.6287 -0.143127 12.2181 0.446278C12.8075 1.03568 12.8075 1.98919 12.2181 2.57859L8.46339 6.33087L12.2221 10.0918C12.8115 10.6812 12.8115 11.6347 12.2221 12.2241C11.9284 12.5198 11.5402 12.6667 11.1559 12.6667C10.7697 12.6667 10.3835 12.5198 10.0898 12.2241L6.33107 8.46319L2.57839 12.2183C2.2847 12.514 1.89847 12.6608 1.51224 12.6608C1.126 12.6608 0.739774 12.514 0.446077 12.2183C-0.143327 11.6289 -0.143327 10.6754 0.446077 10.086L4.19875 6.33087L0.442053 2.57437C-0.147351 1.98497 -0.147351 1.03146 0.442053 0.442054C1.03347 -0.147351 1.98698 -0.147351 2.57437 0.442054Z" fill="black"/>
</svg>
