<?xml version="1.0" encoding="UTF-8"?><svg id="a" xmlns="http://www.w3.org/2000/svg" viewBox="0 0 980.4 961"><rect x="709.8" y="11.8" width="86.5" height="258.9"/><rect x="882.2" y="11.8" width="86.5" height="258.9"/><rect x="360.8" y="356.7" width="86.5" height="258.9"/><rect x="533.2" y="356.7" width="86.5" height="258.9"/><rect x="12.2" y="702.1" width="86.5" height="258.9"/><rect x="184.7" y="702.1" width="86.5" height="258.9"/><path d="M141.2,282.5C63.4,282.5,0,219.1,0,141.2S63.4,0,141.2,0s141.2,63.4,141.2,141.2c.5,77.9-62.9,141.3-141.2,141.3Zm0-204.2c-34.74,0-62.9,28.16-62.9,62.9s28.16,62.9,62.9,62.9,62.9-28.16,62.9-62.9c-.1-34.7-28.2-62.8-62.9-62.9Z"/><path d="M839.2,627.8c-77.9,0-141.2-63.4-141.2-141.2s63.4-141.2,141.2-141.2,141.2,63.4,141.2,141.2-63.3,141.2-141.2,141.2Zm0-204.1c-34.74,0-62.9,28.16-62.9,62.9s28.16,62.9,62.9,62.9,62.9-28.16,62.9-62.9c-.4-34.8-28.5-62.9-62.9-62.9h0Z"/><rect x="709.8" y="874.5" width="258.9" height="86.5"/><rect x="709.8" y="702.1" width="258.9" height="86.5"/><rect x="12.2" y="529.2" width="258.9" height="86.5"/><rect x="12.2" y="356.7" width="258.9" height="86.5"/></svg>