<svg width="11" height="10" viewBox="0 0 11 10" fill="none" xmlns="http://www.w3.org/2000/svg">
<path fill-rule="evenodd" clip-rule="evenodd" d="M5.6671 0.532851C6.50089 0.0057013 7.60852 -0.139931 8.56539 0.166718C10.6468 0.837961 11.2929 3.10706 10.715 4.9126C9.82327 7.74833 6.01477 9.8636 5.85324 9.95231C5.79581 9.9841 5.73222 10 5.66863 10C5.60505 10 5.54198 9.98462 5.48454 9.95334C5.32404 9.86565 1.54323 7.78167 0.621744 4.91311C0.621231 4.91311 0.621231 4.9126 0.621231 4.9126C0.042803 3.10655 0.686869 0.836936 2.76624 0.166718C3.74259 -0.149162 4.80663 -0.0101952 5.6671 0.532851ZM3.00212 0.898983C1.31965 1.44152 0.897113 3.25116 1.35401 4.67825C2.07294 6.91505 4.91329 8.72366 5.66812 9.17133C6.42551 8.71905 9.28638 6.89043 9.98223 4.68031C10.4391 3.25167 10.0151 1.44203 8.33002 0.898983C7.51366 0.636947 6.5614 0.796425 5.90401 1.30511C5.76658 1.41075 5.57582 1.4128 5.43737 1.30819C4.74099 0.784631 3.8313 0.631306 3.00212 0.898983ZM7.83774 1.91734C8.53667 2.14348 9.02639 2.76241 9.08639 3.49417C9.10331 3.70595 8.94588 3.89158 8.7341 3.9085C8.72333 3.90953 8.71308 3.91004 8.70231 3.91004C8.50386 3.91004 8.33566 3.75774 8.31925 3.55673C8.28541 3.13521 8.00337 2.77934 7.60186 2.6496C7.3993 2.58396 7.28854 2.36705 7.35367 2.16553C7.41982 1.96349 7.63468 1.85375 7.83774 1.91734Z" fill="black"/>
</svg>
