<svg width="13" height="10" viewBox="0 0 13 10" fill="none" xmlns="http://www.w3.org/2000/svg">
<path fill-rule="evenodd" clip-rule="evenodd" d="M6.21096 0C8.77911 0.00186278 11.0852 1.80192 12.3805 4.8159C12.4314 4.93325 12.4314 5.06613 12.3805 5.18348C11.0858 8.19808 8.77911 9.99814 6.21096 10H6.20723C3.63909 9.99814 1.33297 8.19808 0.0377212 5.18348C-0.0125737 5.06613 -0.0125737 4.93325 0.0377212 4.8159C1.33297 1.80192 3.63971 0.00186278 6.20723 0H6.21096ZM6.2091 0.931388C4.0756 0.932009 2.12962 2.44893 0.974697 4.99969C2.12962 7.55107 4.07498 9.06799 6.2091 9.06861C8.34322 9.06799 10.2886 7.55107 11.4435 4.99969C10.2886 2.44893 8.34322 0.932009 6.2091 0.931388ZM6.20891 2.57113C7.54825 2.57113 8.63797 3.66085 8.63797 5.00019C8.63797 6.3389 7.54825 7.428 6.20891 7.428C4.86958 7.428 3.78047 6.3389 3.78047 5.00019C3.78047 3.66085 4.86958 2.57113 6.20891 2.57113ZM6.20891 3.50251C5.38308 3.50251 4.71186 4.17436 4.71186 5.00019C4.71186 5.8254 5.38308 6.49662 6.20891 6.49662C7.03474 6.49662 7.70658 5.8254 7.70658 5.00019C7.70658 4.17436 7.03474 3.50251 6.20891 3.50251Z" fill="black"/>
</svg>
